PathFileType	3	(X/Y/Z)	D:\minhoCalibration\240510\subject1_KPNP\preferred\preferred19.trc
DataRate	CameraRate	NumFrames	NumMarkers	Units	OrigDataRate	OrigDataStartFrame	OrigNumFrames
200.0	200.0	33	10	mm	200.0	268	186	
Frame#	Time	Left_Ankle_Outer1			Left_Ankle_Inner1			Left_Knee_Outer1			Left_Knee_Inner1			Left_Wrist1			Right_Wrist1			Right_Knee_Inner1			Right_Knee_Outer1			Right_Ankle_Inner1			Right_Ankle_Outer1			
		X1	Y1	Z1	X2	Y2	Z2	X3	Y3	Z3	X4	Y4	Z4	X5	Y5	Z5	X6	Y6	Z6	X7	Y7	Z7	X8	Y8	Z8	X9	Y9	Z9	X10	Y10	Z10	
268	1.33	-536.82654	156.86307	-583.37939	-570.6272	170.9792	-536.21564	-372.95212	577.15338	-535.6792	-452.84207	562.05914	-464.32388	-449.29065	1019.4229	-759.31091	-635.04706	1161.4454	-468.04544	-381.3898	931.0437	-149.90128	-453.97745	1023.6332	-113.8015	-793.82916	815.68677	-260.97385	-862.65735	862.8208	-192.34805
269	1.335	-540.71594	156.85681	-581.53387	-573.96375	171.14655	-534.22424	-374.78033	576.64874	-535.17145	-454.28378	561.68665	-463.99466	-456.08734	1016.3803	-760.99683	-629.01953	1166.5284	-465.78421	-363.06937	939.3396	-154.45134	-427.60855	1035.6885	-120.29207	-790.19037	827.03778	-214.10454	-849.77759	882.00079	-141.58116
270	1.34	-544.5437	157.0143	-579.98083	-577.0564	170.91379	-532.08264	-376.79355	576.08539	-534.19257	-455.9874	561.93243	-462.68762	-462.62228	1013.5178	-761.99902	-622.67255	1171.812	-463.72797	-346.82895	946.71118	-159.18181	-403.54407	1045.8894	-128.27339	-782.39819	838.8952	-164.46982	-831.92847	901.67163	-91.12664
271	1.345	-548.70575	157.05939	-578.30768	-580.45831	170.77885	-530.24017	-378.08493	575.84515	-533.56287	-458.63321	562.67822	-457.62106	-468.70859	1010.9669	-762.44849	-615.84314	1176.4375	-461.47141	-332.47055	953.19751	-163.97116	-382.81842	1054.5107	-136.81102	-769.84668	851.69135	-112.57147	-809.79663	921.70392	-39.586945
272	1.35	-552.4375	157.07948	-576.87848	-583.82098	170.72476	-528.46692	-380.19824	575.05127	-532.03241	-460.44867	561.28271	-459.48419	-474.47021	1008.4686	-762.84656	-610.56989	1180.896	-461.43463	-320.15359	958.70325	-168.56226	-365.26736	1061.4413	-145.48993	-752.67358	864.76758	-58.850105	-782.80048	942.69824	11.642117
273	1.355	-556.17792	156.76331	-575.01892	-586.89349	170.2202	-526.43903	-381.85764	574.2854	-530.73889	-462.69925	561.90564	-455.15475	-480.10699	1006.0167	-762.56555	-605.01648	1185.2749	-461.63788	-310.19604	963.08856	-172.64197	-351.37033	1066.9683	-153.69144	-729.56769	879.70471	-4.1868725	-751.10364	963.44434	61.440605
274	1.36	-559.51971	156.52367	-573.48688	-589.88348	169.94958	-524.69794	-383.48737	573.33197	-529.34863	-464.06912	560.85883	-455.20795	-485.35379	1003.4051	-761.7691	-600.12042	1188.52	-463.13159	-302.81577	966.50592	-176.05205	-341.00583	1071.3057	-160.88747	-701.78491	896.16418	46.944073	-714.01813	984.82501	108.54236
275	1.365	-562.5105	156.10281	-571.95032	-592.54095	169.40315	-522.94202	-384.95453	572.35297	-528.01263	-465.61243	560.24152	-453.76587	-489.44739	1001.3134	-761.28717	-596.11499	1191.66	-464.17221	-298.08084	969.1413	-178.58426	-333.89822	1074.6122	-167.04192	-668.06946	914.4845	99.016884	-672.19849	1006.6691	153.55171
276	1.37	-565.19208	155.58191	-570.6319	-594.84918	168.76704	-521.52429	-386.28485	571.39716	-526.82172	-466.81659	559.38977	-452.39182	-492.80731	999.29492	-759.87701	-592.40717	1194.2876	-466.0162	-296.07153	971.29395	-180.20456	-329.51611	1076.7871	-172.07806	-629.68561	932.73584	146.51468	-625.51318	1028.0337	195.03435
277	1.375	-567.49933	155.02097	-569.76086	-596.81732	168.01277	-520.35797	-388.27966	570.16107	-525.08228	-467.7399	558.47424	-451.06509	-494.72644	998.08148	-758.64655	-589.94061	1196.097	-467.56927	-296.52267	973.07831	-180.70996	-327.69284	1078.0538	-175.68112	-585.38483	948.2077	188.77451	-574.10291	1048.3882	231.78285
278	1.38	-569.67072	154.17082	-568.92822	-598.6225	166.93819	-519.72778	-389.04282	569.38837	-524.55792	-468.94241	557.84601	-448.30627	-496.71707	996.27399	-756.81689	-588.35413	1197.2911	-469.01401	-299.53101	974.48352	-180.00453	-328.10153	1078.4943	-177.21843	-536.41559	963.61053	226.45935	-519.10266	1067.8417	262.99713
279	1.385	-571.3255	153.22566	-568.71936	-600.39386	166.06758	-519.71088	-390.36975	568.2854	-523.49023	-469.32031	556.82538	-447.47833	-497.51761	995.04602	-755.58484	-587.88129	1198.0067	-469.8822	-304.79974	975.33301	-177.89801	-330.71921	1078.2419	-176.13628	-481.31186	982.01678	258.28036	-460.58307	1085.8346	286.78165
280	1.39	-572.57422	152.1647	-568.85474	-601.94836	164.95927	-519.95105	-391.62329	567.16302	-522.30786	-470.17584	554.98486	-447.05716	-497.76074	994.08057	-753.85883	-588.258	1198.4043	-469.9447	-312.03006	975.42731	-174.15793	-336.40317	1078.1958	-172.22754	-424.38412	997.41589	282.25046	-400.56375	1100.9532	302.0148
281	1.395	-573.80603	150.97949	-569.19958	-603.12103	163.56406	-520.49695	-392.70572	565.96967	-521.08643	-471.60681	553.72229	-444.98831	-497.43314	993.37573	-751.39331	-589.1687	1198.5569	-469.07895	-321.27966	975.11469	-168.75516	-344.56299	1079.0869	-166.89627	-362.7186	1005.7742	295.33292	-341.52814	1113.1912	308.5625
282	1.4	-574.87006	149.65601	-569.78223	-604.48334	162.43262	-521.34015	-393.35895	564.70197	-519.75708	-472.55405	552.60315	-443.57611	-496.19757	993.27533	-748.80865	-590.38202	1198.3521	-467.38062	-330.7103	975.354	-162.35567	-353.02441	1081.1876	-161.69569	-320.0773	1013.9968	298.3009	-288.36929	1123.0803	299.08264
283	1.405	-575.91315	148.17285	-570.3775	-605.53534	160.86028	-521.98511	-394.24142	562.7915	-518.01935	-473.85834	550.25061	-443.48041	-494.61572	993.03473	-745.98767	-591.72247	1197.7969	-464.80011	-339.00577	975.45428	-155.8644	-359.52441	1085.5878	-155.94402	-306.31467	1016.8126	292.40475	-270.68515	1124.8419	297.37323
284	1.41	-576.77112	146.82947	-571.31329	-606.92267	159.48418	-522.98309	-394.36172	560.90698	-516.22021	-474.65222	548.24738	-442.69092	-492.4873	993.16949	-741.77216	-593.04688	1197.0253	-461.41452	-343.16672	973.93585	-150.13826	-361.89801	1093.5353	-150.94609	-307.69025	1017.7346	294.40433	-268.54031	1124.7472	302.5173
285	1.415	-577.53796	145.48428	-572.08282	-607.82019	157.91554	-523.95801	-393.68948	559.46588	-514.61591	-475.7735	546.35004	-439.92331	-489.92062	993.11407	-737.20215	-594.28699	1196.4486	-457.46368	-338.88574	977.3573	-145.3819	-356.07098	1098.4066	-149.49367	-310.6304	1016.6523	296.90164	-273.38467	1122.3909	307.09161
286	1.42	-577.64557	144.59665	-572.84753	-608.1203	156.86888	-524.72827	-394.08942	557.43121	-511.57172	-476.21326	544.19611	-437.41296	-486.98712	993.05743	-732.41846	-595.72986	1196.5955	-453.12985	-329.90463	985.68121	-143.62828	-345.74365	1099.5052	-149.68854	-311.80917	1012.2186	297.27747	-281.99588	1118.8982	312.23798
287	1.425	-577.04041	144.03244	-573.26306	-608.18616	156.28271	-525.59027	-393.33362	556.15961	-508.80908	-475.70612	541.21356	-436.95767	-484.43503	992.58911	-726.67383	-597.65601	1197.2311	-448.63571	-320.43518	992.16461	-145.96193	-337.01346	1099.3202	-149.72845	-316.19928	1006.7763	296.24832	-293.57162	1111.9286	316.14133
288	1.43	-575.73486	143.97168	-573.45856	-607.47229	155.97734	-526.09753	-393.24957	555.22443	-504.55368	-475.46982	539.97076	-432.26746	-481.99136	992.14282	-721.3703	-600.04858	1198.0577	-444.49738	-313.53534	998.06293	-150.59167	-334.29147	1100.8201	-149.86014	-321.75952	999.30103	295.03818	-302.56299	1103.4637	319.2774
289	1.435	-573.76453	144.28337	-573.33722	-606.32361	156.00717	-526.41901	-393.51407	555.02002	-499.10818	-475.56714	539.06744	-427.24387	-479.70642	991.59082	-716.73535	-602.88232	1198.8594	-440.96548	-311.7363	1003.2519	-152.34238	-335.23651	1103.3093	-147.82219	-331.33087	989.22211	293.66522	-310.25876	1096.8517	321.7674
290	1.44	-571.41193	145.01508	-572.99188	-604.70697	156.12747	-526.64221	-393.3642	555.79559	-493.30438	-475.23349	538.08789	-425.12982	-478.21164	990.63538	-711.69537	-606.13605	1199.6146	-438.29471	-311.81595	1005.4339	-151.70477	-337.24133	1105.9669	-145.40552	-338.98944	985.20538	296.13812	-318.90549	1090.4653	323.62372
291	1.445	-568.89099	145.92442	-572.65863	-603.20325	156.56267	-526.83691	-392.96732	557.07556	-487.03183	-475.96545	538.75604	-420.97623	-476.5195	990.07031	-706.69464	-609.72119	1200.2814	-436.43256	-311.62018	1006.8336	-151.83339	-340.18814	1107.8752	-145.1786	-344.85513	977.20264	295.96967	-329.98889	1081.8132	325.47409
292	1.45	-566.63196	146.85648	-571.75909	-601.5675	157.38844	-527.08557	-392.53055	558.27924	-480.57483	-477.35709	539.91559	-416.84653	-474.83978	989.69391	-701.92755	-613.46942	1200.8521	-435.13293	-309.68851	1009.0705	-154.4729	-345.09848	1108.9906	-145.39958	-355.81464	967.25812	294.24451	-341.44629	1070.8632	326.90076
293	1.455	-563.92542	148.45387	-571.47217	-599.60486	158.50156	-527.04163	-392.20859	559.51147	-473.98764	-479.07535	541.28156	-413.0069	-472.88232	989.41156	-697.70538	-617.13098	1201.1537	-434.44138	-306.41943	1012.1476	-157.99281	-350.15948	1109.4949	-144.48749	-356.13889	954.39105	292.23059	-351.78293	1058.9819	327.83713
294	1.46	-561.47266	149.96449	-570.64148	-597.93243	159.761	-526.93616	-391.40424	560.94989	-467.88434	-481.70557	543.49689	-407.242	-471.04086	989.05597	-692.99542	-620.71045	1200.8513	-433.63065	-301.65494	1016.0883	-161.68907	-356.14371	1109.1189	-141.01498	-361.63803	942.14496	290.04883	-361.99704	1045.7958	327.90323
295	1.465	-559.10382	151.46376	-569.68115	-595.73279	161.29559	-526.57208	-390.858	562.26471	-462.0235	-483.52048	544.82751	-404.02307	-468.70554	989.04706	-689.09521	-624.30573	1200.0215	-432.64218	-297.13129	1019.7365	-162.59409	-362.06686	1107.3134	-136.74309	-366.74515	928.74988	287.09021	-373.14337	1031.2295	327.38229
296	1.47	-556.85797	152.97678	-568.58771	-594.03394	162.64087	-525.91589	-390.513	563.54193	-456.56229	-484.73044	546.34985	-401.0885	-466.10654	989.36444	-685.53015	-627.7804	1198.7062	-432.39017	-294.41525	1020.1267	-159.58673	-367.14096	1104.4856	-132.39325	-371.39117	914.21362	283.3623	-384.1701	1015.3569	326.46103
297	1.475	-554.8302	154.28606	-567.18066	-592.41595	163.68932	-525.24457	-390.10623	564.86224	-451.55051	-485.80161	547.57855	-398.13766	-463.29935	990.00812	-681.99542	-631.36182	1197.1517	-430.59488	-294.14148	1016.6665	-157.31099	-370.49899	1100.6902	-128.07018	-376.12769	899.00586	279.52451	-395.4707	998.03528	325.0705
298	1.48	-552.91095	155.73409	-565.96503	-590.67224	164.94223	-524.61591	-389.78513	566.15381	-447.04181	-486.67426	548.31171	-395.24014	-460.33112	990.94305	-678.46423	-635.11389	1195.408	-428.38843	-295.17102	1012.2542	-155.92596	-372.06677	1096.3569	-123.71685	-380.6015	884.04181	276.22516	-405.58621	980.46179	323.33044
299	1.485	-550.92511	157.28142	-565.21838	-589.41296	166.05202	-523.90179	-389.34128	567.31708	-443.02371	-486.69196	549.23285	-392.34982	-457.43011	991.98944	-674.81128	-638.90625	1193.3232	-426.02393	-296.3501	1007.4983	-154.82404	-371.88788	1091.6027	-119.6297	-386.75406	867.98907	271.81958	-414.64066	962.76532	321.24664
300	1.49	-549.32849	158.50702	-564.17529	-588.2381	167.16811	-523.13123	-388.93973	568.36694	-439.36426	-486.47174	549.83362	-389.66803	-454.47626	993.14484	-671.03998	-642.96844	1190.9667	-423.60953	-301.35754	1001.3802	-151.26021	-370.76294	1086.5179	-115.87592	-394.48105	851.32361	267.18884	-423.39554	944.88397	318.77643
